<?xml version="1.0" encoding="UTF-8"?>
<svg id="Layer_1" xmlns="http://www.w3.org/2000/svg" version="1.1" viewBox="0 0 1585.78 338.89">
  <!-- Generator: Adobe Illustrator 30.0.0, SVG Export Plug-In . SVG Version: 2.1.1 Build 123)  -->
  <path d="M217.25,244.45l-48.13,16.56H56l2.49-92.81-2.49-93.13h109.06l48.13,16.56,5.93,35-10.93,28.44-36.57,13.13,40.94,12.81,10.93,28.75-6.25,34.68ZM151.94,107.88l-11.56-3.44h-21.56l-1.87,48.75h23.44l11.56-3.13,3.44-20.31-3.44-21.88ZM156,186.01l-11.56-3.13h-27.5l1.87,48.75h25.62l11.56-3.44,3.44-21.87-3.44-20.32Z"/>
  <path d="M374.48,265.39l-65.93-75.94h-.32l1.87,71.57h-65.31l2.49-92.81-2.49-93.13h112.18l46.26,18.44,6.26,40.32-6.26,40-34.38,11.87,56.87,46.26-51.25,33.44ZM342.29,107.57l-11.55-3.44h-21.56l-1.88,61.56h23.45l11.55-3.12,4.38-27.51-4.38-27.5Z"/>
  <path d="M550.48,264.45l-8.14-35.93h-65.3l-9.69,35.93-38.45-11.87,36.26-91.88,28.12-86.25h62.19l27.81,84.07,37.2,86.25-70,19.68ZM514.22,122.57l-28.12,72.19h48.75l-20.63-72.19Z"/>
  <path d="M635.53,261.01l-7.51-26.87,90.33-130.94-73.13,15.32-9.69-43.45h145.93l7.51,28.44-92.19,129.7,83.13-15.62,9.06,43.44h-153.44Z"/>
  <path d="M811.81,261.01l-7.51-26.87,90.33-130.94-73.13,15.32-9.69-43.45h145.93l7.51,28.44-92.19,129.7,83.13-15.62,9.06,43.44h-153.44Z"/>
  <path d="M991.55,261.01l2.49-92.81-2.49-93.13h143.74l-10,43.45-69.67-15.01-.94,47.82,56.24-6.26v42.81l-56.24-6.55.94,51.25,70.92-15,9.39,43.44h-144.38Z"/>
  <path d="M1285.03,265.39l-65.95-75.94h-.31l1.88,71.57h-65.32l2.49-92.81-2.49-93.13h112.19l46.26,18.44,6.24,40.32-6.24,40-34.38,11.87,56.87,46.26-51.25,33.44ZM1252.84,107.57l-11.57-3.44h-21.55l-1.88,61.56h23.44l11.57-3.12,4.38-27.51-4.38-27.5Z"/>
  <path d="M1520.08,246.63l-60,15.94h-48.12l-59.69-15.94-9.69-78.75,9.69-78.44,60-15.94h48.12l59.69,15.94,9.69,78.44-9.69,78.75ZM1461.02,107.26l-24.38-4.06-25.32,4.06-7.48,60.62,7.48,60.94,24.38,4.06,25.32-4.06,7.51-60.94-7.51-60.62Z"/>
</svg>